<?xml version="1.0" encoding="UTF-8" standalone="no"?>
<!-- Created with Inkscape (http://www.inkscape.org/) -->

<svg
   width="48"
   height="48"
   viewBox="0 0 12.7 12.7"
   version="1.1"
   id="svg1"
   xml:space="preserve"
   xmlns:inkscape="http://www.inkscape.org/namespaces/inkscape"
   xmlns:sodipodi="http://sodipodi.sourceforge.net/DTD/sodipodi-0.dtd"
   xmlns:xlink="http://www.w3.org/1999/xlink"
   xmlns="http://www.w3.org/2000/svg"
   xmlns:svg="http://www.w3.org/2000/svg"><sodipodi:namedview
     id="namedview1"
     pagecolor="#ffffff"
     bordercolor="#999999"
     borderopacity="1"
     inkscape:showpageshadow="0"
     inkscape:pageopacity="0"
     inkscape:pagecheckerboard="0"
     inkscape:deskcolor="#d1d1d1"
     inkscape:document-units="mm"><inkscape:page
       x="0"
       y="0"
       width="12.7"
       height="12.7"
       id="page2"
       margin="0"
       bleed="0"
       inkscape:export-filename="icon.png"
       inkscape:export-xdpi="1000"
       inkscape:export-ydpi="1000" /></sodipodi:namedview><defs
     id="defs1"><linearGradient
       inkscape:collect="always"
       id="linearGradient7516"><stop
         style="stop-color:#e46a24;stop-opacity:1"
         offset="0"
         id="stop7512" /><stop
         style="stop-color:#ff9700;stop-opacity:0.99607843"
         offset="1"
         id="stop7514" /></linearGradient><linearGradient
       inkscape:collect="always"
       xlink:href="#linearGradient7516"
       id="linearGradient9"
       x1="0.26458311"
       y1="6.3499999"
       x2="12.435417"
       y2="6.3499999"
       gradientUnits="userSpaceOnUse" /></defs><g
     inkscape:label="Calque 1"
     inkscape:groupmode="layer"
     id="layer1"><circle
       style="fill:url(#linearGradient9);stroke:none;stroke-width:4.99999;stroke-linecap:round;stroke-linejoin:round;paint-order:markers fill stroke"
       id="path1"
       cx="6.3499999"
       cy="6.3499999"
       r="6.0854168" /><g
       id="text1"
       style="font-size:2.8687px;font-family:Montserrat;-inkscape-font-specification:Montserrat;text-align:center;text-anchor:middle;fill:#ffffff;stroke-width:0.883882;stroke-linecap:round;stroke-linejoin:round;paint-order:markers fill stroke"
       aria-label="gaëtan&#10;sg26"><path
         style="stroke-width:0.883889"
         d="m 2.2506275,6.3820366 q -0.2065464,0 -0.3958806,-0.060243 Q 1.6654127,6.2615512 1.547796,6.1496719 L 1.6510692,5.9947621 q 0.1061419,0.094667 0.2610517,0.1491724 0.1577785,0.057374 0.3327692,0.057374 0.28687,0 0.4216989,-0.1348289 Q 2.8014179,5.9345194 2.8014179,5.6533868 V 5.2775871 L 2.8301049,5.0194041 2.810024,4.7612211 V 4.3050978 h 0.1950716 v 1.3224707 q 0,0.3901432 -0.1922029,0.5708713 Q 2.6235585,6.3820366 2.2506275,6.3820366 Z M 2.2133344,5.7537913 q -0.2151525,0 -0.3872745,-0.091798 -0.172122,-0.094667 -0.2725265,-0.2610517 -0.097536,-0.1663846 -0.097536,-0.3815371 0,-0.2151525 0.097536,-0.3786684 0.1004045,-0.1663846 0.2725265,-0.258183 0.172122,-0.091798 0.3872745,-0.091798 0.200809,0 0.3614562,0.083192 0.1606472,0.083192 0.2553143,0.2467082 0.094667,0.1635159 0.094667,0.3987493 0,0.2352334 -0.094667,0.3987493 -0.094667,0.1635159 -0.2553143,0.2495769 -0.1606472,0.086061 -0.3614562,0.086061 z m 0.020081,-0.1807281 q 0.1663846,0 0.2954761,-0.068849 0.1290915,-0.071718 0.2036777,-0.1950716 0.074586,-0.1262228 0.074586,-0.2897387 0,-0.1635159 -0.074586,-0.28687 Q 2.6579829,4.60918 2.5288914,4.5403312 2.3997999,4.4686137 2.2334153,4.4686137 q -0.1635159,0 -0.2954761,0.071718 -0.1290915,0.068849 -0.2036777,0.1922029 -0.071717,0.1233541 -0.071717,0.28687 0,0.1635159 0.071717,0.2897387 0.074586,0.1233541 0.2036777,0.1950716 0.1319602,0.068849 0.2954761,0.068849 z M 4.516899,5.8111653 V 5.4783961 l -0.00861,-0.054505 V 4.867363 q 0,-0.1922029 -0.1090106,-0.2954761 -0.1061419,-0.1032732 -0.3184257,-0.1032732 -0.1463037,0 -0.2782639,0.048768 -0.1319602,0.048768 -0.2237586,0.1290915 L 3.4870357,4.494432 q 0.114748,-0.097536 0.2753952,-0.1491724 0.1606472,-0.054505 0.3385066,-0.054505 0.2926074,0 0.4503859,0.1463037 0.1606472,0.143435 0.1606472,0.4389111 v 0.9351962 z m -0.5192347,0.014343 q -0.1692533,0 -0.2954761,-0.054505 -0.1233541,-0.057374 -0.1893342,-0.1549098 -0.06598,-0.1004045 -0.06598,-0.229496 0,-0.1176167 0.054505,-0.2122838 Q 3.5587532,5.0767781 3.684976,5.0194041 3.8140675,4.9591614 4.02922,4.9591614 H 4.5484547 V 5.1112025 H 4.0349574 q -0.2180212,0 -0.3040822,0.077455 -0.083192,0.077455 -0.083192,0.1922029 0,0.1290915 0.1004045,0.2065464 0.1004045,0.077455 0.2811326,0.077455 0.172122,0 0.2954761,-0.077455 0.1262228,-0.080324 0.1835968,-0.229496 l 0.045899,0.1405663 q -0.057374,0.1491724 -0.200809,0.2381021 -0.1405663,0.08893 -0.3557188,0.08893 z m 1.9076858,0 q -0.2352334,0 -0.4130928,-0.097536 Q 5.3143979,5.6275685 5.2139934,5.4554465 5.1135889,5.2804558 5.1135889,5.0566972 q 0,-0.2237586 0.094667,-0.3958806 0.097536,-0.172122 0.2639204,-0.2696578 0.1692533,-0.1004045 0.3786684,-0.1004045 0.2122838,0 0.3757997,0.097536 0.1663846,0.094667 0.2610517,0.2696578 0.094667,0.172122 0.094667,0.3987493 0,0.014343 -0.00287,0.031556 0,0.014344 0,0.031556 H 5.2684987 V 4.9677675 H 6.470484 l -0.080324,0.060243 q 0,-0.1635159 -0.071718,-0.2897387 Q 6.2495941,4.60918 6.1291087,4.5374625 6.0086233,4.465745 5.8508448,4.465745 q -0.1549098,0 -0.2782639,0.071718 Q 5.4492268,4.60918 5.380378,4.7382715 5.3115292,4.867363 5.3115292,5.0337476 v 0.031556 q 0,0.172122 0.074586,0.3040822 0.077455,0.1290915 0.2122838,0.2036777 0.1376976,0.071718 0.3126883,0.071718 0.1376976,0 0.2553143,-0.048768 0.1204854,-0.048768 0.2065464,-0.1491724 l 0.114748,0.1319602 Q 6.3872917,5.699286 6.2352506,5.7623974 6.0860782,5.8255088 5.9053501,5.8255088 Z M 6.1032904,4.0038843 q -0.048768,0 -0.086061,-0.034424 -0.037293,-0.034424 -0.037293,-0.08893 0,-0.054505 0.037293,-0.08893 0.037293,-0.034424 0.086061,-0.034424 0.051637,0 0.086061,0.034424 0.037293,0.034424 0.037293,0.08893 0,0.054505 -0.037293,0.08893 -0.034424,0.034424 -0.086061,0.034424 z m -0.5106286,0 q -0.051637,0 -0.08893,-0.034424 -0.034424,-0.034424 -0.034424,-0.08893 0,-0.054505 0.034424,-0.08893 0.037293,-0.034424 0.08893,-0.034424 0.048768,0 0.086061,0.034424 0.037293,0.034424 0.037293,0.08893 0,0.054505 -0.037293,0.08893 -0.037293,0.034424 -0.086061,0.034424 z m 1.8818675,1.8216245 q -0.2122838,0 -0.3270318,-0.114748 -0.114748,-0.114748 -0.114748,-0.3241631 V 3.9723286 h 0.2036777 v 1.4027943 q 0,0.1319602 0.06598,0.2036777 0.068849,0.071718 0.1950716,0.071718 0.1348289,0 0.2237586,-0.077455 l 0.071718,0.1463037 q -0.060243,0.054505 -0.1463037,0.080324 -0.083192,0.025818 -0.172122,0.025818 z M 6.7630917,4.4743511 V 4.3050978 H 7.6954192 V 4.4743511 Z M 9.1068203,5.8111653 V 5.4783961 l -0.00861,-0.054505 V 4.867363 q 0,-0.1922029 -0.1090106,-0.2954761 -0.1061419,-0.1032732 -0.3184257,-0.1032732 -0.1463037,0 -0.2782639,0.048768 -0.1319602,0.048768 -0.2237586,0.1290915 L 8.076957,4.494432 q 0.114748,-0.097536 0.2753952,-0.1491724 0.1606472,-0.054505 0.3385066,-0.054505 0.2926074,0 0.4503859,0.1463037 0.1606472,0.143435 0.1606472,0.4389111 v 0.9351962 z m -0.5192347,0.014343 q -0.1692533,0 -0.2954761,-0.054505 -0.1233541,-0.057374 -0.1893342,-0.1549098 -0.06598,-0.1004045 -0.06598,-0.229496 0,-0.1176167 0.054505,-0.2122838 0.057374,-0.097536 0.1835968,-0.1549098 0.1290915,-0.060243 0.344244,-0.060243 H 9.138376 V 5.1112025 H 8.6248787 q -0.2180212,0 -0.3040822,0.077455 -0.083192,0.077455 -0.083192,0.1922029 0,0.1290915 0.1004045,0.2065464 0.1004045,0.077455 0.2811326,0.077455 0.172122,0 0.2954761,-0.077455 0.1262228,-0.080324 0.1835968,-0.229496 l 0.045899,0.1405663 q -0.057374,0.1491724 -0.200809,0.2381021 -0.1405663,0.08893 -0.3557188,0.08893 z M 10.624363,4.2907543 q 0.183597,0 0.321295,0.071718 0.140566,0.068849 0.218021,0.2122838 0.08032,0.143435 0.08032,0.3614562 V 5.8111653 H 11.040325 V 4.9562927 q 0,-0.2381021 -0.120486,-0.3585875 -0.117616,-0.1233541 -0.332769,-0.1233541 -0.160647,0 -0.281133,0.06598 -0.117616,0.063111 -0.183596,0.1864655 -0.06311,0.1204854 -0.06311,0.2926074 V 5.8111653 H 9.8555515 V 4.3050978 h 0.1950715 v 0.4130928 l -0.03156,-0.077455 q 0.07172,-0.1635159 0.229496,-0.2553143 0.157779,-0.094667 0.3758,-0.094667 z"
         id="path11" /><path
         style="stroke-width:0.883889"
         d="m 3.7382879,8.3862957 q -0.1864655,0 -0.3528501,-0.051637 Q 3.2190532,8.2801538 3.1243861,8.1998302 L 3.2161845,8.039183 q 0.091798,0.068849 0.2352334,0.1204854 0.143435,0.048768 0.3012135,0.048768 0.2151525,0 0.3098196,-0.06598 0.094667,-0.068849 0.094667,-0.1807281 0,-0.083192 -0.054505,-0.1290915 Q 4.0509762,7.7838687 3.9649152,7.7609191 3.8788542,7.7351008 3.7727123,7.7178886 3.6665704,7.7006764 3.5604285,7.6777268 3.4571553,7.6547772 3.3710943,7.6117467 3.2850333,7.5658475 3.230528,7.4883926 3.1788914,7.4109377 3.1788914,7.2818462 q 0,-0.1233541 0.068849,-0.2208899 0.068849,-0.097536 0.200809,-0.1520411 0.1348289,-0.057374 0.3270318,-0.057374 0.1463037,0 0.2926074,0.040162 0.1463037,0.037293 0.2409708,0.1004045 l -0.08893,0.1635159 Q 4.119825,7.0867746 4.005077,7.0580876 3.890329,7.0265319 3.775581,7.0265319 q -0.2036777,0 -0.3012135,0.071718 -0.094667,0.068849 -0.094667,0.1778594 0,0.086061 0.051637,0.1348289 0.054505,0.048768 0.1405663,0.077455 0.08893,0.025818 0.1922029,0.04303 0.1061419,0.017212 0.2094151,0.043031 0.1061419,0.02295 0.1922029,0.06598 0.08893,0.040162 0.1405663,0.1176167 0.054505,0.074586 0.054505,0.1979403 0,0.1319602 -0.074586,0.229496 -0.071718,0.094667 -0.2122838,0.1491724 -0.1376976,0.051637 -0.3356379,0.051637 z m 1.6380302,0.5565278 q -0.2065464,0 -0.3958806,-0.060243 Q 4.7911033,8.8223381 4.6734866,8.7104588 L 4.7767598,8.555549 q 0.1061419,0.094667 0.2610517,0.1491724 0.1577785,0.057374 0.3327692,0.057374 0.28687,0 0.4216989,-0.1348289 Q 5.9271085,8.4953063 5.9271085,8.2141737 V 7.838374 L 5.9557955,7.580191 5.9357146,7.322008 V 6.8658847 h 0.1950716 v 1.3224707 q 0,0.3901432 -0.1922029,0.5708713 Q 5.7492491,8.9428235 5.3763181,8.9428235 Z M 5.339025,8.3145782 q -0.2151525,0 -0.3872745,-0.091798 Q 4.7796285,8.1281127 4.679224,7.9617281 4.5816882,7.7953435 4.5816882,7.580191 q 0,-0.2151525 0.097536,-0.3786684 0.1004045,-0.1663846 0.2725265,-0.258183 0.172122,-0.091798 0.3872745,-0.091798 0.200809,0 0.3614562,0.083192 0.1606472,0.083192 0.2553143,0.2467082 0.094667,0.1635159 0.094667,0.3987493 0,0.2352334 -0.094667,0.3987493 Q 5.8611284,8.1424562 5.7004812,8.2285172 5.539834,8.3145782 5.339025,8.3145782 Z m 0.020081,-0.1807281 q 0.1663846,0 0.2954761,-0.068849 0.1290915,-0.071718 0.2036777,-0.1950716 0.074586,-0.1262228 0.074586,-0.2897387 0,-0.1635159 -0.074586,-0.28687 Q 5.7836735,7.1699669 5.654582,7.1011181 5.5254905,7.0294006 5.3591059,7.0294006 q -0.1635159,0 -0.2954761,0.071718 -0.1290915,0.068849 -0.2036777,0.1922029 -0.071718,0.1233541 -0.071718,0.28687 0,0.1635159 0.071718,0.2897387 0.074586,0.1233541 0.2036777,0.1950716 0.1319602,0.068849 0.2954761,0.068849 z M 6.5266652,8.3719522 V 8.2256485 L 7.3614569,7.408069 q 0.114748,-0.1118793 0.172122,-0.1950716 0.057374,-0.086061 0.077455,-0.1606472 0.020081,-0.074586 0.020081,-0.1405663 0,-0.1749907 -0.1204854,-0.2753952 -0.1176167,-0.1004045 -0.3499814,-0.1004045 -0.1778594,0 -0.315557,0.054505 Q 6.710262,6.6449948 6.6127262,6.7597428 L 6.4664225,6.63352 Q 6.5840392,6.4958224 6.767636,6.4212362 6.9512328,6.34665 7.1778601,6.34665 q 0.2036777,0 0.3528501,0.06598 0.1491724,0.063111 0.229496,0.1864655 0.083192,0.1233541 0.083192,0.2897387 0,0.097536 -0.028687,0.1922029 -0.025818,0.094667 -0.097536,0.200809 Q 7.6483269,7.3851194 7.513498,7.5170796 L 6.7475551,8.268679 6.6901811,8.1883554 h 1.2450158 v 0.1835968 z m 2.4838185,0.017212 q -0.2667891,0 -0.4503859,-0.1176167 Q 8.376501,8.1510623 8.2818339,7.9273037 8.1871668,7.7006764 8.1871668,7.3851194 q 0,-0.3413753 0.114748,-0.5708713 Q 8.4195315,6.5818834 8.6260779,6.4642667 8.8326243,6.34665 9.1051508,6.34665 q 0.1348289,0 0.258183,0.025818 0.1233541,0.025818 0.2180212,0.083192 l -0.083192,0.1663846 q -0.077455,-0.051637 -0.1778594,-0.071717 -0.1004045,-0.02295 -0.2122838,-0.02295 -0.3241631,0 -0.5192347,0.2065464 -0.1922029,0.2065464 -0.1922029,0.6167705 0,0.063111 0.00574,0.1577785 0.00861,0.091798 0.034424,0.1835968 L 8.3650262,7.637565 q 0.031556,-0.1491724 0.1233541,-0.2524456 0.091798,-0.1061419 0.229496,-0.1606472 0.1376976,-0.054505 0.3012135,-0.054505 0.200809,0 0.3528501,0.074586 0.1520411,0.074586 0.2381021,0.2094151 0.086061,0.1348289 0.086061,0.3184257 0,0.1864655 -0.08893,0.3270318 -0.08893,0.1376976 -0.2467082,0.2151525 -0.1549098,0.074586 -0.3499814,0.074586 z m -0.00861,-0.1749907 q 0.143435,0 0.2524456,-0.051637 0.1118793,-0.054505 0.1749907,-0.1520411 0.063111,-0.1004045 0.063111,-0.2323647 0,-0.1979403 -0.1376976,-0.315557 -0.1348289,-0.1176167 -0.3671936,-0.1176167 -0.1549098,0 -0.2696578,0.057374 -0.114748,0.057374 -0.1807281,0.1577785 -0.06598,0.097536 -0.06598,0.2237586 0,0.1090106 0.060243,0.2094151 0.060243,0.097536 0.1778594,0.1606472 0.1204854,0.060243 0.2926074,0.060243 z"
         id="path12" /></g></g></svg>
